<?xml version="1.0" standalone="no"?>
<!DOCTYPE svg PUBLIC "-//W3C//DTD SVG 1.1//EN" "http://www.w3.org/Graphics/SVG/1.1/DTD/svg11.dtd" >
<svg>
<metadata>
Created by FontForge 20090622 at Tue Nov 12 04:48:02 2013
 By ffonts
Made with yourfonts.com. Copyright &#194;&#169; 2009 YourFonts. All rights reserved.
</metadata>
<defs>
<font id="!!!Handwritingg3" horiz-adv-x="947" >
  <font-face 
    font-family="!!! Handwritingg <3"
    font-weight="400"
    font-stretch="normal"
    units-per-em="2048"
    panose-1="3 0 0 0 0 0 0 0 0 0"
    ascent="1638"
    descent="-410"
    x-height="976"
    cap-height="1571"
    bbox="60 -382 12608 1728"
    underline-thickness="150"
    underline-position="-142"
    unicode-range="U+0020-U+2022"
  />
<missing-glyph horiz-adv-x="1317" 
d="M60 0v1635h1177v-1635h-1177zM140 80h1017v1475h-1017v-1475z" />
    <glyph glyph-name=".notdef" horiz-adv-x="1317" 
d="M60 0v1635h1177v-1635h-1177zM140 80h1017v1475h-1017v-1475z" />
    <glyph glyph-name=".null" horiz-adv-x="0" 
 />
    <glyph glyph-name="nonmarkingreturn" horiz-adv-x="550" 
 />
    <glyph glyph-name="space" unicode=" " horiz-adv-x="550" 
 />
    <glyph glyph-name="space" unicode="&#xa0;" horiz-adv-x="550" 
 />
    <glyph glyph-name="exclam" unicode="!" horiz-adv-x="374" 
d="M209 1422q85 0 85 -233q0 -244 -43 -616h-106q-43 0 -43 43q43 504 43 764zM187 170q85 -103 85 -170l-127 -106h-21q-37 0 -64 106q11 170 127 170z" />
    <glyph glyph-name="quotedbl" unicode="&#x22;" horiz-adv-x="649" 
d="M400 1465h85q48 0 63 -106q0 -22 -21 -22q43 -181 43 -318l-43 -127h-64l-85 509q22 41 22 64zM124 1444h63l22 -107v-191q42 -209 42 -233v-21l-85 -22q-106 0 -106 298v148q13 128 64 128z" />
    <glyph glyph-name="numbersign" unicode="#" horiz-adv-x="1498" 
d="M548 1061l43 -63v-43l-21 -106h254l43 21l-21 43q0 170 127 170q36 0 64 -128q-22 -37 -22 -85q282 43 361 43q43 -114 43 -128q-21 -41 -21 -63h-85q-149 0 -149 42l-42 -21h-107v-149h22q121 0 254 43l22 -106v-22q0 -42 -191 -63h-85q0 -22 -22 -22l22 -148v-85
l-106 -21q-31 0 -85 106l21 106v64q-217 -43 -297 -43l21 -148v-43q0 -42 -43 -42h-21q-127 0 -127 191q-20 0 -170 -43h-21q-43 0 -43 43v85q0 37 255 85v148h-21q-32 0 -298 -21q-42 52 -42 85q32 85 64 85h85q21 0 21 -21q212 21 212 63l-21 106q0 85 127 85zM570 700
v-63l-22 -106q233 42 319 42v149h-85z" />
    <glyph glyph-name="dollar" unicode="$" horiz-adv-x="946" 
d="M506 1359q76 0 106 -170q137 0 170 -191l-21 -85h-128q-15 106 -63 106q0 -21 -22 -21l22 -106v-128q297 -82 297 -340v-84q0 -179 -319 -276q-32 -85 -63 -85h-43q-115 127 -318 212q0 57 -64 127v106q0 31 64 64h63q0 -183 170 -255h43l21 213v148l-21 43l-43 -21
q-276 13 -276 169h21l-21 43q0 304 319 361q65 170 106 170zM251 892v-85l106 -22h64v170q0 43 -43 43q-70 -7 -106 -106h-21zM548 594v-361q136 0 191 170q-67 191 -191 191z" />
    <glyph glyph-name="percent" unicode="%" horiz-adv-x="1244" 
d="M230 1252h42l22 -106q0 -42 -128 -85q-106 30 -106 149q78 42 170 42zM952 1252h85v-63q0 -58 -446 -849q-21 -128 -64 -128h-85q-42 0 -42 43v42q0 81 382 679q99 264 170 276zM1015 403h22q127 -13 127 -63v-85q-36 0 -106 -64q-52 42 -85 42v128q7 42 42 42z" />
    <glyph glyph-name="ampersand" unicode="&#x26;" horiz-adv-x="819" 
d="M654 1529q0 -31 64 -64l-21 -213v-21q42 -150 42 -170q0 -148 -85 -148q-37 -21 -84 -21l42 -64v-106q-85 -95 -85 -106q33 0 85 -85v-64l-85 -212q21 -217 21 -340q-42 0 -42 -64h-64q-64 0 -85 170q21 250 21 361q-47 42 -233 64q0 30 -85 85v63q0 128 106 128v42
q-64 0 -64 106v64q63 124 404 234q42 0 42 106l-42 191q77 64 148 64zM294 892v-43l106 21v43zM336 616v-22h21l43 22l42 -22q41 22 64 22v42h-21z" />
    <glyph glyph-name="quotesingle" unicode="'" horiz-adv-x="310" 
d="M81 1465h64l42 -21l-21 -107q21 -254 64 -403q-21 -41 -21 -64h-43q-70 0 -106 255v191z" />
    <glyph glyph-name="parenleft" unicode="(" horiz-adv-x="650" 
d="M485 1635q85 -22 85 -106q-234 -108 -340 -531q-43 -131 -43 -170l22 -43l-22 -42q144 -382 276 -382q0 -21 43 -21v-107h-21q-159 0 -361 255q-64 106 -64 170v127q0 419 340 828q10 0 85 22z" />
    <glyph glyph-name="parenright" unicode=")" horiz-adv-x="586" 
d="M294 1635h42q170 -128 170 -616q0 -505 -297 -764h-107q-42 0 -42 42v43q184 108 191 169q90 138 127 446q0 282 -127 595v42q7 43 43 43z" />
    <glyph glyph-name="asterisk" unicode="*" horiz-adv-x="1181" 
d="M718 1316h21q128 -13 128 -64v-84q-170 -260 -170 -361l42 21h319q42 -7 42 -43v-127q-249 21 -361 21h-42l-43 21v-21q0 -125 170 -424v-64q0 -33 -85 -85h-63q-42 0 -106 340h-22l-21 -149v-127q-42 -52 -42 -85h-107q-42 0 -42 42v149l106 255l21 148h-85l-148 -21v21
q-41 -21 -64 -21q-97 41 -106 85v21q42 85 64 85l42 -21l43 21l127 -42l42 21q42 -21 64 -21v21q-106 340 -106 446l42 21h43q68 0 127 -382q81 47 170 403z" />
    <glyph glyph-name="plus" unicode="+" 
d="M357 1125l64 -85v-255l106 -21h297l43 -42q-50 -128 -85 -128h-43l-63 43h-234q0 -43 -21 -43l64 -318v-43q-35 0 -64 -42q-127 21 -127 64v382h-22l-191 -21l-21 42v85l42 64l107 -22h85q-43 160 -43 298v21z" />
    <glyph glyph-name="comma" unicode="," horiz-adv-x="395" 
d="M251 85q35 -51 64 -170q0 -147 -170 -297h-43q-42 0 -42 42v43q85 88 85 212v21l-21 106q69 43 127 43z" />
    <glyph glyph-name="hyphen" unicode="-" horiz-adv-x="819" 
d="M166 743l106 -21h128q88 0 233 21q97 -41 106 -85l-21 -106q-249 21 -361 21q-107 0 -255 -42q0 42 -42 42v85q0 31 106 85z" />
    <glyph glyph-name="period" unicode="." horiz-adv-x="480" 
d="M315 361q68 0 85 -170q0 -79 -149 -191h-127q-51 0 -64 191q0 170 255 170z" />
    <glyph glyph-name="slash" unicode="/" horiz-adv-x="904" 
d="M718 1422q97 -41 106 -85q0 -44 -467 -828q-106 -339 -212 -339h-21q-43 64 -64 148q7 57 106 106q488 858 488 977q23 0 64 21z" />
    <glyph glyph-name="zero" unicode="0" horiz-adv-x="862" 
d="M400 1550h170q123 0 212 -850q-64 -323 -149 -445q0 -32 -127 -107h-85q-361 99 -361 531h21q0 21 -21 21q0 29 64 489q-22 41 -22 63q20 0 128 213q89 85 170 85zM230 722v-22q0 -221 191 -403q212 138 212 446q0 113 -63 340l21 42q-57 255 -170 255h-21
q-170 0 -170 -658z" />
    <glyph glyph-name="one" unicode="1" horiz-adv-x="374" 
d="M102 1613h43l85 -63l-21 -213v-63l21 -106h-21q42 -251 85 -956q-22 -85 -149 -85q0 43 -43 43q22 263 22 276q0 196 -64 976h21l-21 43v106q7 42 42 42z" />
    <glyph glyph-name="two" unicode="2" horiz-adv-x="1116" 
d="M400 1571q327 0 467 -488v-107q-43 -399 -43 -445q213 -199 213 -234q-43 -69 -43 -106h-85q-170 212 -191 212q-235 -318 -382 -318q-276 87 -276 361v63q70 213 382 213l234 -64l21 149v169q0 315 -255 425q-42 0 -42 -21q0 -13 -128 -106h-42q-31 0 -64 63
q0 234 234 234zM230 467v-85l85 -106q146 0 255 233q-120 64 -170 64q-170 -56 -170 -106z" />
    <glyph glyph-name="three" unicode="3" horiz-adv-x="926" 
d="M251 1571h149q205 0 233 -212q0 -136 -127 -276q244 0 340 -340q0 -340 -446 -467h-170q-170 87 -170 212v43q7 42 42 42q170 -149 213 -149q237 0 382 234v127q-37 107 -255 149q-212 -27 -212 -106h-149l-21 106h21l-21 42v22q216 50 403 276h22v21l-22 106h-148
q-71 0 -149 -64h-21q-52 43 -85 43v106q29 85 191 85z" />
    <glyph glyph-name="four" unicode="4" horiz-adv-x="904" 
d="M294 1656l63 -64q-127 -565 -127 -679h21q340 34 340 170q42 265 42 446v21q0 48 106 63q85 -21 85 -106q-85 -235 -170 -1252h-127v233q0 119 43 319q-22 0 -22 21q-204 -64 -382 -64h-85l-21 106l127 637q-21 41 -21 64q72 85 128 85z" />
    <glyph glyph-name="five" unicode="5" 
d="M676 1571q85 -32 85 -64v-127q-446 -105 -446 -170l-21 -127v-128q82 43 233 43h43q245 0 297 -213v-21q-61 -531 -425 -531l-106 -21q-276 0 -276 170v21q0 116 106 170h21q64 -21 64 -127q-64 0 -64 -43l107 -21h21q243 0 339 127q43 70 43 128v42l-43 149h-63
q-48 0 -85 21q-56 0 -319 -149h-21q-30 0 -64 64q0 151 43 234q-21 37 -21 85v21q0 21 21 21q0 21 -21 21q21 340 127 340l106 -21q192 0 319 106z" />
    <glyph glyph-name="six" unicode="6" horiz-adv-x="1010" 
d="M230 1486h21l85 -85q-127 -512 -127 -785q0 -48 106 -213h63v149q0 234 170 361v21h43q76 0 191 21q99 0 149 -297q0 -235 -531 -446q-340 79 -340 361v64q0 240 106 658l-21 42q29 149 85 149zM527 446h43q191 125 191 276q-43 0 -43 63q-148 0 -191 -254v-85z" />
    <glyph glyph-name="seven" unicode="7" horiz-adv-x="946" 
d="M718 1529q149 -17 149 -128l-191 -552h-22q0 -21 22 -21l-85 -404q21 -84 21 -148q-64 0 -64 -64h-63q-49 0 -64 106q0 56 212 913l21 106q-21 0 -21 22q-170 -43 -361 -43h-148q-31 0 -64 64v64l106 42l128 -21q358 64 424 64z" />
    <glyph glyph-name="eight" unicode="8" horiz-adv-x="968" 
d="M548 1507q248 -42 340 -106v-85q0 -93 -149 -297q0 -33 -42 -85v-21h42v-43q-46 -530 -424 -530q-255 0 -255 318q46 198 191 340v42q-64 0 -64 149q0 212 361 318zM485 1337q0 -34 -128 -106l-21 -106q41 -21 64 -21q41 21 63 21v-21l234 64v63q-127 0 -127 106h-85z
M209 594q0 -20 85 -127q164 0 318 297q0 40 -64 170q-339 -53 -339 -340z" />
    <glyph glyph-name="nine" unicode="9" horiz-adv-x="1010" 
d="M527 1486q115 -21 191 -21q0 -49 106 -64q85 -54 107 -170q-22 -145 -22 -233v-106q0 -22 -21 -22l21 -42q0 -64 -21 -64l21 -106v-340q0 -42 -42 -42h-21l-107 21l22 255v403h-22q-233 -318 -488 -318q-191 27 -191 191v42q0 489 467 616zM187 976q36 -191 85 -191
q185 0 425 340q-21 191 -85 191h-42q-267 0 -383 -340z" />
    <glyph glyph-name="colon" unicode=":" horiz-adv-x="416" 
d="M124 934h21q28 0 106 -106v-64l-149 -21q-42 0 -42 42v85q0 31 64 64zM187 531h107q42 -7 42 -43v-106l-106 -21h-21q-64 21 -64 127q42 0 42 43z" />
    <glyph glyph-name="semicolon" unicode=";" horiz-adv-x="331" 
d="M124 1019h85l21 -106q-21 -85 -106 -85l-64 106q32 85 64 85zM102 594h107q42 -6 42 -42v-510h-85q-56 0 -85 489q21 41 21 63z" />
    <glyph glyph-name="less" unicode="&#x3c;" horiz-adv-x="756" 
d="M548 1040q106 -29 106 -148q0 -27 -254 -255q0 -21 -106 -149v-21l360 -234q22 -37 22 -85v-21l-43 -63q-130 0 -212 127q-346 139 -361 212q0 122 170 234z" />
    <glyph glyph-name="equal" unicode="=" horiz-adv-x="925" 
d="M591 870q114 0 148 -85v-63q-43 -85 -106 -85q-69 42 -127 42l-85 -21q-21 0 -21 21q-246 -42 -298 -42l-42 85l64 106l85 -21q382 21 382 63zM824 594l22 -42v-64q0 -96 -574 -106q0 -21 -85 -21l-42 63v64q0 83 679 106z" />
    <glyph glyph-name="greater" unicode="&#x3e;" horiz-adv-x="713" 
d="M230 1210q134 0 191 -234q41 -141 212 -254v-64q-305 -380 -552 -446h-21v106q340 271 340 340q-99 244 -234 382q0 21 21 21l-21 43v42q0 31 64 64z" />
    <glyph glyph-name="question" unicode="?" horiz-adv-x="777" 
d="M506 1507q191 0 191 -148q0 -127 -297 -489v-42l148 21q43 -52 43 -85q0 -106 -276 -106l-85 85v42q0 161 297 467q0 64 43 64q0 43 -43 43h-21q-144 0 -297 -234l-107 -21l-42 148q260 255 446 255zM442 276h85q43 -7 43 -43v-106q0 -30 -64 -63h-43q-51 42 -85 42v42
q14 128 64 128z" />
    <glyph glyph-name="at" unicode="@" horiz-adv-x="1286" 
d="M739 1252h107q202 0 318 -276q21 0 43 -212q-44 -403 -234 -403h-42q-85 34 -85 148q-154 -191 -340 -191q-106 0 -128 276q125 382 383 382l148 22q64 -78 64 -149v-276h42q43 189 43 255q-64 255 -234 255q-287 0 -594 -510q0 -58 -43 -127q59 -340 319 -340h64
q233 71 233 191h64q42 -7 42 -42v-64q-114 -234 -339 -234q-286 0 -425 170q-85 95 -85 191v106q11 203 234 489q309 288 445 339zM548 637v-106q7 -43 43 -43q120 85 191 234v85h-21q-107 0 -213 -170z" />
    <glyph glyph-name="A" unicode="A" horiz-adv-x="1223" 
d="M570 1677h84q107 -512 192 -807h21q181 22 276 22v-128l-106 -21q-23 0 -64 21q-41 -21 -64 -21q0 21 -21 21v-42q127 -348 255 -574l-21 -127h-128q0 57 -233 722q-280 -43 -383 -43q-127 -764 -212 -764h-21q-64 0 -85 149q93 0 234 594h-22q0 -42 -42 -42h-21
q0 63 -64 63v64l64 85l106 -21h21q182 849 234 849zM548 1486q0 -223 -127 -658h149l148 21q-64 229 -148 637h-22z" />
    <glyph glyph-name="B" unicode="B" horiz-adv-x="1074" 
d="M272 1613h43q63 0 63 -106h64l128 22q17 0 191 -85v-107q-28 -243 -128 -254v-43q254 0 361 -382q0 -382 -424 -382h-170v-21l21 -149q-43 0 -43 -64h-84q-31 0 -64 64v42l21 149q-191 45 -191 170q21 149 64 149h63q0 -65 22 -149h42v85q0 276 -64 276l22 255v148
q-128 0 -128 128q0 101 149 106v106q6 42 42 42zM378 1337q0 22 -21 22q0 -43 -21 -43q0 -21 21 -21l-21 -149l21 -106q255 81 255 297q-85 17 -85 43q-107 -43 -149 -43zM485 913l-107 -85v-170q0 -48 22 -85l-22 -42l22 -43v-64l127 -21h64q255 0 255 191q0 298 -340 298
q0 21 -21 21z" />
    <glyph glyph-name="C" unicode="C" horiz-adv-x="904" 
d="M485 1592q212 -12 212 -42q121 -94 127 -234v-42q0 -43 -42 -43h-64q-97 167 -212 191q-229 0 -297 -764q0 -382 276 -382q185 48 254 106h43q42 -7 42 -42v-64q0 -91 -233 -149h-106q-383 0 -383 234q-42 0 -42 127q0 271 42 404l-21 42q156 595 297 595q0 21 107 63z
" />
    <glyph glyph-name="D" unicode="D" horiz-adv-x="1074" 
d="M251 1571q0 -85 446 -212q297 -162 297 -659q0 -295 -318 -509q-154 -32 -234 -85q-69 42 -127 42h-64q0 -63 -42 -63h-85q-43 0 -43 63q38 175 64 574q0 21 -21 21l21 106v467q-85 0 -85 128q106 127 191 127zM272 1316v-509q0 -48 22 -85q-22 -37 -22 -85v-191
q0 -119 106 -149l43 21l42 -21q298 0 383 425q0 432 -340 552q-138 42 -191 42h-43z" />
    <glyph glyph-name="E" unicode="E" horiz-adv-x="1202" 
d="M209 1571h21q64 -21 64 -127q-22 -42 -22 -64h22q179 85 552 170q42 -70 42 -128l-21 -85q-53 0 -170 22q-224 0 -425 -170v-128l22 -106q-22 0 -22 -21l43 -21q132 0 573 106l21 -43v-84q0 -43 -42 -43h-128q-138 0 -445 -149q34 -382 84 -382l680 191q30 0 64 -63v-43
q0 -56 -722 -212q-54 -127 -170 -127h-21q0 84 -85 84v64q0 31 63 64q-42 661 -42 870q-85 0 -85 64v42q64 52 85 277z" />
    <glyph glyph-name="F" unicode="F" horiz-adv-x="990" 
d="M633 1635h106l22 -106q-81 -124 -128 -128l-42 21q-106 0 -340 -170v-339l21 -43q170 85 595 191l42 -63v-64q-359 -85 -594 -212h-43v-149q0 -171 22 -403q-22 -85 -128 -85l-42 63v213q0 21 21 21l-21 42v22q0 21 21 21l-21 42q0 43 21 43l-21 148v64q0 88 21 234
q-38 212 -85 212v106q38 47 64 213h106l21 -85q173 66 382 191z" />
    <glyph glyph-name="G" unicode="G" horiz-adv-x="1010" 
d="M591 1635q261 -127 276 -234l-21 -106h-107q-141 146 -191 149q-361 -168 -361 -828q88 -226 191 -298l107 22q0 -22 21 -22q164 173 233 446q26 0 43 85l-43 -21q-21 0 -21 21q-208 -85 -255 -85h-21l-21 85q212 170 488 170v-21q22 -37 22 -85q-221 -765 -468 -765
h-106q-186 60 -276 298l-21 148v213q43 347 234 637q221 191 254 191h43z" />
    <glyph glyph-name="H" unicode="H" horiz-adv-x="1095" 
d="M888 1635h43q30 0 63 -64l-63 -212v-361l84 -22v-84q0 -43 -84 -43v-318l21 -128q-29 -148 -64 -148h-85l-21 106v85q0 71 21 106l-21 127v170h-21q-510 -33 -510 -85l-21 -212q0 -191 42 -319q-29 -106 -148 -106h-43q0 23 -21 64q0 70 42 340q0 21 -21 21
q43 339 43 764l21 43q-21 37 -21 85v21q0 48 148 85q0 -48 22 -85q-43 -347 -43 -531h21q85 42 149 42q21 0 21 -21l106 21h191q43 0 43 64q10 595 106 595z" />
    <glyph glyph-name="I" unicode="I" horiz-adv-x="395" 
d="M81 1571h128q42 -7 42 -42q-21 -189 -21 -234l21 -85q0 -21 -21 -21q42 -673 85 -849q-64 -213 -106 -213h-64q-70 0 -85 319l21 42q0 21 -21 21q0 23 21 64l-21 191l21 149l-21 127h21l-21 43v191l21 127l-21 43z" />
    <glyph glyph-name="J" unicode="J" horiz-adv-x="841" 
d="M676 1529q85 -32 85 -64q-43 -206 -43 -234q0 -72 43 -424q-110 -659 -425 -659h-42q-234 0 -234 64v43q5 106 42 106q64 0 170 -43q185 0 319 467v64q0 97 -21 488q21 42 21 64q-21 37 -21 85q69 43 106 43z" />
    <glyph glyph-name="K" unicode="K" horiz-adv-x="1138" 
d="M209 1486h21q30 0 64 -64v-21q0 -48 -22 -85q0 -21 22 -21q-43 -248 -43 -361q21 -41 21 -64q177 89 531 510q0 48 106 64l43 -64v-43q0 -116 -319 -339q0 -27 -170 -170q0 -43 -21 -43q79 -170 595 -445l21 -43l-21 -106h-106q-616 417 -616 467q-21 37 -21 85h-43
q0 -23 21 -64l-42 -403q21 -35 21 -106v-22q0 -110 -64 -127q-110 0 -127 64q42 170 85 1231l-21 43q49 127 85 127z" />
    <glyph glyph-name="L" unicode="L" horiz-adv-x="862" 
d="M294 1486l42 -149q-42 0 -106 -806h-21l21 -43q0 -21 -21 -21q48 -234 106 -234h85l382 43v-128q0 -30 -64 -63h-531q-127 0 -127 127q0 21 21 21l-21 107v42q85 609 85 828l-21 191q17 85 170 85z" />
    <glyph glyph-name="M" unicode="M" horiz-adv-x="1372" 
d="M973 1656h42q64 -13 64 -170l-21 -85l233 -1061q0 -149 -148 -149q0 42 -43 42v298l-191 870q-122 -155 -212 -382l42 -85q0 -92 -106 -170h-85q-41 3 -212 467q-50 149 -85 149l21 -106v-43q0 -21 -21 -21l21 -42q-21 -221 -21 -255q0 -21 21 -21l-21 -149v-170
q0 -106 21 -318l-106 -64h-21q-33 0 -85 85q42 160 42 297v234l22 127q0 21 -22 21l22 106v64q0 48 -22 85q22 41 22 64q-22 145 -22 233q176 106 234 106h42q0 -72 170 -509h22q42 0 169 340q71 156 234 212z" />
    <glyph glyph-name="N" unicode="N" horiz-adv-x="1053" 
d="M888 1698q37 -21 85 -21v-64q-64 -284 -64 -467v-382q0 -48 -21 -85l21 -42q0 -21 -21 -21q43 -177 43 -340q-43 0 -43 -64h-64q-65 29 -212 404q-85 75 -297 679l-43 -21q0 -22 22 -22q-50 -746 -85 -849l21 -42v-149q0 -30 -64 -64h-42q-31 0 -64 64v85q85 653 85 807
q0 21 -21 21q0 510 191 510q69 0 106 -255q21 0 127 -319q17 -14 191 -382h22q0 122 21 149q0 21 -21 21l21 106v595q0 119 106 148z" />
    <glyph glyph-name="O" unicode="O" horiz-adv-x="905" 
d="M485 1571q110 -45 148 -191q116 0 170 -595q0 -53 21 -169l-21 -43q21 -41 21 -64q-110 -552 -403 -552h-43q-318 104 -318 807q62 807 425 807zM209 828v-43q0 -552 233 -658h43q191 157 191 446v191q-60 573 -213 573v43q-210 0 -254 -552z" />
    <glyph glyph-name="P" unicode="P" horiz-adv-x="883" 
d="M485 1571h106q212 -131 212 -425q0 -149 -276 -361h-42q-107 0 -107 64h-63l42 -64v-191q0 -71 64 -424q-13 -106 -127 -106q-92 0 -128 636l-106 616l85 64l42 -21q161 212 298 212zM315 1274v-340h42q0 85 43 85h42v-64h85q127 112 127 234q0 103 -127 212v21h-21
q-134 -59 -191 -148z" />
    <glyph glyph-name="Q" unicode="Q" horiz-adv-x="1286" 
d="M591 1444q170 -29 170 -255q85 -70 191 -446v-234q0 -92 -43 -169q98 -149 234 -149q64 -78 64 -149l-64 -42q-53 0 -297 170h-22q-82 -175 -339 -276q-208 0 -340 446q-54 0 -85 254q56 498 212 701q129 93 319 149zM209 679v-21q0 -303 276 -594h21q193 116 212 169v22
q-233 79 -233 233v21l42 22q66 0 255 -149l21 42v298q0 148 -149 339q-148 149 -148 191h-21q-276 -179 -276 -573z" />
    <glyph glyph-name="R" unicode="R" horiz-adv-x="1329" 
d="M378 1571q58 -8 85 -106q-21 -37 -21 -85v-43q253 128 425 128q64 -21 64 -128v-85q-71 -298 -213 -382q-97 -127 -148 -127v-43q230 -63 276 -63h169q48 0 85 21l43 -21q41 21 64 21l42 -106q-30 -106 -149 -106q0 52 -530 85q0 21 -85 21h-22q64 -248 64 -297v-43
q0 -110 -64 -127h-63q-64 0 -85 403l21 43q-21 37 -21 85h21q-21 31 -42 276h-22q0 -85 -106 -85q-97 41 -106 85v42q204 297 234 297l-22 213v42q44 85 106 85zM442 1146v-148l21 -149q-21 0 -21 -21h21q319 204 319 467q-189 0 -340 -149z" />
    <glyph glyph-name="S" unicode="S" 
d="M485 1486q289 0 382 -255q-43 -69 -43 -106h-127q-78 191 -234 191q-127 -37 -127 -191q127 -204 276 -255q212 -230 212 -339q0 -489 -339 -489q0 -21 -22 -21q-403 99 -403 319v63q42 52 42 85h22l106 -21v-21q0 -48 -21 -85q43 -121 233 -191q234 50 234 233
q0 228 -319 425q-152 152 -212 297q78 361 340 361z" />
    <glyph glyph-name="T" unicode="T" horiz-adv-x="1222" 
d="M1079 1571q41 -21 64 -21v-106q0 -60 -170 -85q0 42 -42 42l-255 -21v-21q-43 -369 -43 -786q0 -48 21 -85q0 -21 -21 -21q27 -237 43 -297q-27 -106 -64 -106h-85q-33 0 -85 84l43 22l-22 42q16 128 43 128l-21 42v21q0 351 42 956q-269 -36 -318 -85h-85
q-64 21 -64 127v21z" />
    <glyph glyph-name="U" unicode="U" horiz-adv-x="1201" 
d="M1037 1613q37 -21 85 -21l-170 -1146q0 -175 -234 -340h-191q-88 58 -191 170q-76 5 -149 446q-90 492 -127 573q21 106 106 106q64 0 170 -785q150 -361 318 -361q217 0 298 1337q48 0 85 21z" />
    <glyph glyph-name="V" unicode="V" horiz-adv-x="1371" 
d="M1249 1656h21l21 -85q-191 -275 -467 -1465q-87 -106 -127 -106q-106 0 -212 467q-43 0 -43 85h21q-191 486 -212 509h-21q0 22 21 22q-191 246 -191 382l42 21h43q147 0 170 -234q117 -116 361 -870h21q63 24 340 1040q91 234 212 234z" />
    <glyph glyph-name="W" unicode="W" horiz-adv-x="1605" 
d="M654 1507h128q97 0 170 -361q48 -10 127 -339q78 -212 149 -276h21v21l-21 42q0 22 21 22q0 22 -21 63q42 401 148 828q137 0 149 -127q-149 -453 -149 -658q0 -23 22 -64l-22 -127v-255l22 -43q-100 -63 -149 -63q-73 0 -127 233q-132 190 -319 765h-21
q-234 -880 -319 -1104l-106 -22q-85 0 -127 637l-170 658v43q21 64 127 64q30 -2 85 -107l-21 -85q21 -201 127 -530q0 -22 -21 -22l43 -191h-22q22 -37 22 -85h42q85 403 191 722h21q0 22 -21 22l21 106q0 18 -21 170q21 41 21 63z" />
    <glyph glyph-name="X" unicode="X" horiz-adv-x="925" 
d="M654 1592h64l106 -21v-127l-63 -149q-64 0 -64 -64q-43 -87 -149 -424q152 -316 255 -489l43 -148v-22q-10 -43 -107 -84q-77 0 -148 318q-84 191 -106 191h-22q-143 -679 -254 -679q-85 21 -85 127q42 171 233 637q0 85 43 149q-35 0 -340 679v43q52 42 85 42
q97 0 191 -382l127 -191q149 505 191 594z" />
    <glyph glyph-name="Y" unicode="Y" horiz-adv-x="925" 
d="M124 1677q106 0 191 -340q32 -47 191 -424h42v21q0 102 106 679q-21 0 -21 22l106 42q57 -14 107 -106v-64q-109 0 -255 -1295l21 -148q-29 -107 -149 -107q-77 75 -85 191q107 218 107 510q-107 0 -107 191q-68 103 -318 722v21q42 85 64 85z" />
    <glyph glyph-name="Z" unicode="Z" horiz-adv-x="1138" 
d="M782 1529h85q42 -7 42 -43v-85q0 -40 -233 -509v-22q199 43 318 43h21q43 -7 43 -43v-63q-21 -64 -127 -64l-107 21q-276 0 -276 -191q-77 -120 -148 -318q21 0 21 -22q361 64 403 107q107 -14 107 -128v-42l-43 -64l-191 21q-204 0 -382 -106h-128l-21 106v21
q0 57 276 574h-64q-53 0 -191 -43l-63 85q0 77 63 128l107 -22h191q191 235 191 467q-64 0 -64 22l-42 -22h-85q-99 0 -340 -42q-85 21 -85 149q70 42 127 42h361q25 0 234 43z" />
    <glyph glyph-name="bracketleft" unicode="[" horiz-adv-x="968" 
d="M761 1422h42q42 0 85 -127q0 -127 -403 -127q-213 -41 -213 -255q0 -21 22 -21l-43 -510q21 -74 21 -212h276q48 0 85 21q106 -36 106 -106l-85 -106l-254 21h-170q-48 0 -85 -21q-85 21 -85 106q42 250 64 615q0 22 -22 22l22 106v340q0 148 297 148q106 0 170 43
l42 -22q20 0 128 85z" />
    <glyph glyph-name="backslash" unicode="\" horiz-adv-x="777" 
d="M124 1444h42q58 0 191 -552q340 -556 340 -616v-64q0 -64 -127 -64q-373 765 -468 1062q-42 138 -42 191z" />
    <glyph glyph-name="bracketright" unicode="]" horiz-adv-x="819" 
d="M102 1444l192 -22q71 0 360 22l43 -107l-43 -191q22 -41 22 -63l-43 -22l21 -127q0 -335 85 -786l-106 -127l-106 21h-318q-128 0 -128 149q43 0 43 42l106 -21h233q31 0 64 106l-21 128q0 180 -21 806q-43 0 -43 22l-276 -64q-97 41 -106 85v127q42 0 42 22z" />
    <glyph glyph-name="asciicircum" unicode="^" horiz-adv-x="12688" 
d="M10718 1728q107 -27 107 -63v-595q0 -21 -22 -21q0 -21 22 -21l-22 -106q0 -58 43 -128l-21 -42q21 -41 21 -64q-72 -85 -128 -85q-63 21 -63 43q0 374 42 509q-21 84 -21 149q0 22 21 63q-21 158 -64 276q16 64 85 85zM8128 1707q43 0 43 -64h42l64 43h191
q106 -54 106 -191q-75 -244 -361 -488l-21 -85l42 -22h149q98 0 340 43l21 -43v-63q0 -43 -361 -85q-37 21 -85 21h-149v-255q0 -30 -63 -64h-64q-64 14 -64 170q0 48 21 85l-21 43q17 85 43 85q-22 41 -22 63q0 107 43 107l-21 42v276h-43q-42 -151 -42 -170h-128v64
q0 99 213 340q0 148 127 148zM9126 1686l276 -106l21 -43q-42 -413 -42 -488l21 -340h21q85 44 85 106h64v-127q-106 -137 -106 -170h-43q-170 0 -170 340h-21q-131 -255 -276 -255h-64q-73 0 -106 234v191q0 510 255 637q48 0 85 21zM11865 1665h85q42 -7 42 -43v-339
q85 0 85 -22l106 22h425v-85q-354 -43 -595 -43v-446q0 -148 -148 -148l-43 85q43 69 43 127v361l-212 21h-192l-63 43q-128 -213 -276 -213q0 -166 212 -297l106 21h64q0 22 212 213q43 51 43 85h85v-22q-178 -403 -383 -403q0 -21 -106 -43q-282 0 -403 468v21
q0 467 318 573h64q106 0 149 -106v-170q190 -42 361 -64v22q-22 289 -22 360zM10166 1622h22q191 0 191 -934q0 -170 -107 -170q-41 21 -63 21q21 287 21 425q0 132 -85 488h-21q-169 -101 -319 -806q-21 0 -21 -43h-85q-42 0 -42 43q0 79 42 615q-21 41 -21 64q21 41 21 64
q-21 116 -21 170l42 21h128v-297h21q121 339 297 339zM8128 1431v-318q32 0 149 148q148 107 148 276l-42 22q-161 0 -255 -128zM5262 1559q85 -32 85 -64l-22 -128q43 -268 43 -382l233 340l149 64q182 0 255 -574v-21h21q0 274 255 552q27 23 191 106q127 0 191 -127v-21
q0 -43 -64 -43v-21q107 -6 107 -64v-169q0 -215 148 -574q0 -42 -42 -42h-22q-154 120 -169 255h-22q-90 -234 -339 -234q-213 82 -213 276h-21v-21l64 -276q-64 0 -64 -64h-106q0 500 -191 892h-21q-298 -254 -298 -807q-31 0 -85 -64h-42q-42 0 -42 43l21 297
q0 68 -85 849h21q23 0 64 22zM8914 1091v-191q13 -127 63 -127h43q212 283 212 488q-64 16 -85 85q43 85 43 149h-128q-148 -128 -148 -404zM336 1495h127q255 -163 255 -340l-21 -106h-85q-41 0 -106 234q-41 42 -128 42l-21 -106q0 -192 149 -595q21 -200 21 -382
q0 -215 -149 -318h-42q-172 62 -276 297v21q0 304 276 425v42q-106 315 -106 510v106q0 115 106 170zM4816 1474h64q42 -7 42 -43v-361h21q32 0 191 43l43 -64q-202 -79 -255 -127l21 -149q0 -403 -148 -403h-64v63l64 85v361h-43q-276 -64 -276 -106v-85q85 -107 85 -127
q-58 -207 -106 -213h-42q-64 22 -64 128v170q0 76 -21 191l21 42l-21 43q0 21 21 21q-43 197 -43 340h-21q-154 0 -233 -425q-80 -531 -170 -531h-43q-42 0 -42 43q42 516 63 573q-14 41 -42 361q32 85 64 85h42q64 0 64 -234h21q27 135 212 276q11 0 85 21q170 0 170 -361
v-127q319 43 319 85q-22 232 -22 403zM11122 1155q144 0 233 234v42q-42 0 -42 21q-191 -55 -191 -297zM3330 1346q89 0 254 -127q-21 -263 -21 -276q80 -425 213 -425v-42q-30 -88 -107 -128h-21q-170 172 -170 383q-21 0 -21 84h-42q0 -214 -234 -552l-64 -42h-42
q-133 0 -191 212h21l-21 43v170q0 503 255 637q81 63 191 63zM1950 1325q160 -73 191 -510h21q151 446 361 446h42q149 -88 149 -552v-170q0 -47 21 -85q-51 -169 -85 -169h-63q-43 0 -43 42v64q7 42 43 42q-22 530 -85 658q-170 -88 -170 -212q-68 0 -149 -552l-64 -42
q-84 31 -84 63l21 191q-43 350 -149 616q-144 0 -212 -892l-64 -42h-21l-85 64l21 212v212q0 137 -63 552l42 22h64q63 0 63 -85l-21 -43q21 -32 21 -127h43q0 93 64 170q-22 0 -22 21q165 106 213 106zM1058 1304h85q46 0 170 -191q-43 -158 -43 -213q0 -327 170 -615
q-41 -97 -85 -107h-42q-72 0 -128 425q-27 0 -106 -361l-148 -106h-107q-127 174 -127 403v234q0 276 212 510zM6175 773q0 -80 106 -212q169 0 255 254v170l-22 128l64 127q-70 43 -127 43q-276 -175 -276 -510zM3032 900l22 -42v-21l-43 -64v-85q21 -297 85 -297
q155 110 276 679v64q0 42 -42 42h-43q-148 0 -255 -276zM824 603q0 -133 64 -297h21q87 0 191 637q-21 37 -21 85v127q-198 0 -255 -318v-234zM187 370l22 -43q-22 -37 -22 -85q105 -158 170 -170l43 64v212q0 22 21 22q-43 108 -43 169q-51 -3 -191 -169z" />
    <glyph glyph-name="underscore" unicode="_" horiz-adv-x="1413" 
d="M1228 233h21q64 0 85 -169l-149 -64l-42 21h-64v21h-42l-106 -21l-22 43q-440 -22 -807 -64l-42 64v21q0 57 42 127l213 -21h148q22 0 22 -21l42 21h446l127 21q38 -21 85 -21q7 42 43 42z" />
    <glyph glyph-name="a" unicode="a" horiz-adv-x="989" 
d="M506 1189q0 -53 212 -128l21 -106v-148q0 -287 170 -489v-106q0 -30 -63 -64h-64q-78 0 -128 319h-42q0 -244 -382 -319h-43q-71 0 -106 319q-21 0 -21 21q64 674 340 701h106zM357 976q-127 -217 -127 -297v-276q42 -52 42 -85q203 0 276 552h-21q-42 0 -106 106h-64z
" />
    <glyph glyph-name="b" unicode="b" horiz-adv-x="968" 
d="M102 1401h22q127 0 127 -85q0 -71 -21 -106q21 -145 21 -234v-191q123 116 403 170q234 -48 234 -424q-73 -446 -297 -446h-21q-171 0 -276 148l-64 -42h-85q-53 0 -64 85q0 38 43 233q0 16 -22 128q0 21 22 21l-64 552l21 42q-21 38 -21 85v22q7 42 42 42zM315 403
l42 21h21q26 0 85 -169l107 -22q98 0 169 276q-42 276 -127 276q-228 0 -297 -382z" />
    <glyph glyph-name="c" unicode="c" horiz-adv-x="734" 
d="M357 1210q191 -53 191 -191v-43q0 -106 -85 -127q-106 0 -106 149h-63q-85 -270 -85 -361q0 -240 191 -276q128 106 148 106q97 -41 106 -85v-21q0 -89 -339 -191q-255 75 -255 446q56 594 297 594z" />
    <glyph glyph-name="d" unicode="d" 
d="M591 1465q148 0 148 -128v-403q0 -409 128 -531q0 -148 -149 -148q-64 98 -64 127q-201 -212 -318 -212h-42q-165 0 -234 339v85q88 467 297 467q35 22 106 22q70 -43 128 -43l-21 43v21q0 21 21 21q-43 96 -43 276q43 0 43 64zM209 594q0 -254 169 -254q128 0 192 403
q-128 49 -128 170q-233 -120 -233 -319z" />
    <glyph glyph-name="e" unicode="e" horiz-adv-x="840" 
d="M400 1168q127 0 191 -149v-43q0 -21 -21 -21l21 -42q-98 -297 -297 -297h-22v-128q32 -191 128 -191q106 0 276 191h42q43 -6 43 -42v-64q-186 -255 -404 -255q-180 0 -255 425q22 41 22 64q-31 0 -64 63v43q106 58 106 212q122 234 234 234zM294 785h21q106 0 106 191
h-21q-38 0 -106 -191z" />
    <glyph glyph-name="f" unicode="f" horiz-adv-x="840" 
d="M378 1422h149q191 -113 191 -254v-22q0 -30 -64 -63h-106q0 110 -106 169h-21q-86 0 -127 -276q42 -157 42 -212h106q90 0 234 64q85 -32 85 -64v-21q0 -93 -383 -127v-22q51 -50 85 -403q0 -149 -148 -149q0 64 -64 64l21 149v42q0 137 -42 297h-128q-42 0 -42 43
q0 106 106 106h21v42q0 25 -42 234h21l-21 42q75 361 233 361z" />
    <glyph glyph-name="g" unicode="g" horiz-adv-x="819" 
d="M442 1359q225 0 297 -213v-339q0 -22 -21 -22q0 -21 21 -21l-21 -106l21 -85h-21q0 -21 21 -21q-37 -361 -276 -361h-85q-51 42 -84 42v64q6 43 42 43l127 -22q128 112 128 340v42h-43q-6 -78 -233 -127q-174 0 -234 149h-21v85q0 311 318 552h64zM230 828q32 -85 64 -85
h63q170 85 170 255q-64 93 -64 170h-63q-170 -110 -170 -340z" />
    <glyph glyph-name="h" unicode="h" horiz-adv-x="1010" 
d="M187 1359h22q36 0 63 -107q-42 -95 -42 -276v-191q162 191 361 191q177 -96 233 -360q57 -235 107 -340q0 -106 -107 -128q-106 0 -106 319q-38 156 -170 340q-148 0 -212 -234h-21q21 -263 21 -276q0 -149 -149 -149h-63q-64 0 -64 234v21q0 19 42 170l-21 85
q0 21 21 21l-21 106v170q-21 215 -21 340q54 64 127 64z" />
    <glyph glyph-name="i" unicode="i" horiz-adv-x="480" 
d="M294 1274h63q43 -7 43 -43v-42l-22 -106h-84q-43 0 -43 42v106q7 43 43 43zM124 913q21 0 21 -21l42 21q31 0 64 -64v-488l21 -149q-69 -42 -127 -42h-21l-64 42q42 198 42 340l-21 340z" />
    <glyph glyph-name="j" unicode="j" horiz-adv-x="607" 
d="M400 1231h42q31 0 64 -63v-128h-21l-149 21v107q0 30 64 63zM442 828h21q43 -114 43 -128h-21q42 -127 42 -552v-42q0 -361 -361 -361q-56 0 -106 106q21 149 64 149l148 -106q128 163 128 318q-64 478 -64 595z" />
    <glyph glyph-name="k" unicode="k" 
d="M102 1295q128 0 128 -573h21q222 157 319 382h106q30 0 63 -64q0 -102 -254 -297q0 -17 -128 -127q0 -72 382 -149q38 21 85 21q43 -52 43 -85q0 -34 -85 -85q-271 0 -531 128q0 -128 64 -128v-21q-43 -212 -85 -212h-85q-43 0 -43 42v680q0 275 -42 382q42 69 42 106z
" />
    <glyph glyph-name="l" unicode="l" horiz-adv-x="373" 
d="M145 1252h42q64 0 64 -84l-21 -43q0 -21 21 -21l-21 -149v-361q0 -63 64 -488q-42 -97 -85 -106h-43q-64 21 -64 127q0 541 -42 1062z" />
    <glyph glyph-name="m" unicode="m" horiz-adv-x="1499" 
d="M548 1146q134 0 213 -467v-63h42q157 467 276 467q0 53 85 63q114 0 255 -828v-21q-43 -52 -43 -85q-148 0 -148 255q0 187 -106 467q-88 -14 -298 -658q0 -93 -85 -128h-106v361q-38 404 -127 404q-91 0 -191 -573v-128q0 -33 -85 -85h-85q0 50 -43 85l22 149l-22 127
q22 41 22 64q-22 37 -22 85h22q-43 71 -64 361l85 63h42q43 -154 43 -318l233 382q48 0 85 21z" />
    <glyph glyph-name="n" unicode="n" horiz-adv-x="968" 
d="M591 1104q131 0 148 -382q85 -376 149 -531q-21 -41 -21 -64h-128l-85 85l22 85q-64 533 -128 616q-254 -149 -254 -595l21 -42q0 -94 -128 -149l-106 21q21 287 21 425v106q0 98 -42 340q70 64 106 64q85 -32 85 -64v-149l-21 -42l42 -21q125 297 319 297z" />
    <glyph glyph-name="o" unicode="o" horiz-adv-x="755" 
d="M485 1040q169 -61 169 -212q0 -23 -21 -64q43 -107 43 -382q-122 -403 -340 -403h-85q-191 148 -191 467q0 507 425 594zM209 446v-22q0 -50 106 -297q182 0 212 361v21q0 262 -106 319q-212 0 -212 -382z" />
    <glyph glyph-name="p" unicode="p" horiz-adv-x="756" 
d="M421 1168q191 -36 255 -170q0 -446 -425 -446v-149q43 -209 43 -233v-85l-128 -43q-85 0 -85 213q0 42 21 42l-21 106v467q0 48 -21 85q16 149 149 149v-43h21q78 64 191 107zM272 700q22 0 22 -21q178 43 212 149v106q0 42 -43 42h-63q-128 -71 -128 -276z" />
    <glyph glyph-name="q" unicode="q" horiz-adv-x="905" 
d="M548 1019q203 0 276 -913v-149q-85 -10 -85 -63h-63q0 64 -22 148q22 117 22 170q-64 313 -64 382h-42q0 -109 -298 -233q-212 20 -212 233q55 425 488 425zM230 573l106 -21q68 106 149 106v21l-43 64v106h-21q-191 -77 -191 -276z" />
    <glyph glyph-name="r" unicode="r" horiz-adv-x="713" 
d="M570 1061q31 0 63 -85q-12 -106 -170 -106q-191 -191 -191 -467l64 -255q-43 -115 -106 -148h-21q-92 0 -107 700q-25 0 -42 213l64 42h21q64 0 64 -191h21q169 297 340 297z" />
    <glyph glyph-name="s" unicode="s" horiz-adv-x="734" 
d="M294 1083q360 0 360 -170v-43q-9 -43 -106 -85q-163 128 -233 128h-43q0 -29 -63 -128q19 -129 382 -339q0 -33 42 -85v-21q0 -213 -255 -319v-21l-42 21q-48 0 -85 -21q-111 42 -170 148v107q7 42 43 42q100 -116 191 -149q170 75 170 170q-404 262 -404 340l-21 127v22
q0 191 234 276z" />
    <glyph glyph-name="t" unicode="t" horiz-adv-x="1011" 
d="M463 1210h64l64 -42l-21 -213v-63l21 -43q27 21 297 43q43 -52 43 -85q0 -34 -85 -85l-107 21q-47 0 -85 -21q-37 21 -84 21l-22 -43v-254q43 -206 43 -234q-32 -85 -64 -85h-85q-48 0 -64 106h22l-22 43v21q0 48 22 85q0 21 -22 21l22 149v170l-340 -22v85q13 64 170 64
h191v85q0 76 -21 191q32 85 63 85z" />
    <glyph glyph-name="u" unicode="u" horiz-adv-x="968" 
d="M124 1061q69 -42 106 -42q0 -13 -21 -276q0 -440 127 -488q128 0 255 594l-21 106q21 85 127 85q41 -21 64 -21v-21q0 -496 127 -828v-85h-106q-102 53 -128 403q-29 -1 -127 -276l-212 -148h-64q-142 0 -191 700l21 85q-21 82 -21 170z" />
    <glyph glyph-name="v" unicode="v" horiz-adv-x="925" 
d="M145 976h42q49 0 128 -339q127 -247 127 -297h21q191 608 255 636h64q42 0 64 -127q-149 -103 -276 -637q-77 -148 -107 -148h-63q-31 3 -213 530q-35 0 -127 276v64q33 0 85 42z" />
    <glyph glyph-name="w" unicode="w" horiz-adv-x="1372" 
d="M1207 1125q84 -44 84 -106q-144 -419 -212 -892l-106 -21l-255 425l-127 106q-57 0 -191 -616q0 -85 -64 -85h-42q-107 0 -107 404l-127 573q32 85 64 85h106q64 -637 106 -637q100 509 234 509q130 0 361 -403l63 -43l149 701h64z" />
    <glyph glyph-name="x" unicode="x" horiz-adv-x="883" 
d="M697 1104h106v-85q-340 -409 -340 -488q0 -51 149 -276v-107q0 -30 -64 -63h-63q-62 0 -128 339q-73 -43 -127 -233q-23 0 -64 -21q-37 21 -85 21q0 122 191 361q-56 209 -212 382q42 70 42 127h85q88 -73 213 -361h21q240 389 276 404z" />
    <glyph glyph-name="y" unicode="y" horiz-adv-x="776" 
d="M591 1040q106 -21 106 -106q-43 -256 -43 -403v-319q-29 -340 -148 -340l-212 43v21l21 106q135 -42 148 -42q43 50 64 467h-42q0 -106 -213 -127h-42q-170 79 -170 573v42q0 31 64 64h63q31 0 64 -64q-21 -180 -21 -297v-21q64 -94 64 -149q233 130 233 510z" />
    <glyph glyph-name="z" unicode="z" horiz-adv-x="925" 
d="M166 998l212 -22h43l212 22q43 -78 43 -170q-91 0 -106 -212h148q21 -42 21 -64q-42 -43 -297 -64q0 -37 -85 -233l43 -22q93 0 361 128q85 -21 85 -128v-21q-4 -30 -574 -170q-97 41 -106 85v128q128 177 128 233h-213q0 23 -21 64q27 106 64 106q55 0 254 -42
q64 132 64 191h-127q-21 0 -21 21l-43 -21h-85q-32 0 -64 85z" />
    <glyph glyph-name="braceleft" unicode="{" horiz-adv-x="713" 
d="M548 1422l64 -85v-85q-297 -34 -297 -191q63 -172 63 -318v-85q58 0 85 -127q-85 -290 -85 -340v-21q23 0 64 -22q0 64 106 64h43q42 -6 42 -42v-64q-76 -127 -255 -127q-153 69 -169 148l21 43l-21 42q10 164 85 255v21q0 17 -64 64l-43 -21h-63q-64 13 -64 169
q12 51 149 107l-22 42q0 21 22 21l-43 85q0 21 21 21l-21 149v127q25 0 149 107q179 63 233 63z" />
    <glyph glyph-name="bar" unicode="|" horiz-adv-x="352" 
d="M209 1656l42 -64q0 -138 -21 -424q21 -344 21 -383l-21 -297q42 -337 42 -424q-42 0 -42 -64h-85l-85 64l21 212v276q0 48 21 85q-21 37 -21 85v148q0 22 21 22l-21 42v106q0 198 21 361v234z" />
    <glyph glyph-name="braceright" unicode="}" horiz-adv-x="671" 
d="M230 1274q255 0 255 -234v-21q0 -58 -107 -234q192 -67 192 -106l21 -85q-87 -89 -170 -106v-42q42 -251 42 -319q-119 -148 -297 -148q-21 37 -21 85v21q0 26 149 85v42q-43 138 -43 191q21 127 21 191q-85 51 -85 149q149 285 149 318v22h-106l-64 -43l-106 21v128
q0 34 170 85z" />
    <glyph glyph-name="asciitilde" unicode="~" horiz-adv-x="1117" 
d="M336 1146q179 0 403 -191h43q106 64 106 170h85q64 -21 64 -127v-85q-237 -149 -319 -149l-318 212q-80 0 -170 -233l-43 -21h-85q0 42 -42 42v149q0 35 149 148q0 50 127 85z" />
    <glyph glyph-name="cent" unicode="&#xa2;" horiz-adv-x="905" 
d="M421 1401h127q0 -22 22 -64v-106q60 0 254 -127v-128h-63q-49 0 -213 85q-63 -70 -63 -361v-63l21 -149q-21 0 -21 -21h42q89 30 149 191h42q33 0 85 -85v-42q0 -142 -318 -255q-13 -191 -64 -191h-43q-30 0 -63 63v128q-179 0 -255 212v170q0 184 276 488q58 0 85 255z
M357 976q-148 -239 -148 -318v-106q59 -128 148 -128v298q0 21 21 21q0 21 -21 21l21 149v63h-21z" />
    <glyph glyph-name="degree" unicode="&#xb0;" horiz-adv-x="585" 
d="M294 1486q212 -78 212 -212q-27 -255 -212 -255q-206 0 -234 212v64q0 170 127 170zM209 1274l21 -106h106l21 148v21q-22 0 -63 22q-85 -22 -85 -85z" />
    <glyph glyph-name="plusminus" unicode="&#xb1;" 
d="M421 1189q69 -43 106 -43v-212q234 0 234 -149v-42h-64l-149 21v-21l22 -106h-22l22 -43q0 -106 -85 -106v-21h106q220 21 255 21l21 -42v-128q-64 0 -64 -42q-147 42 -255 42h-148q-107 0 -319 -21l-21 149l42 21h361v21q-106 0 -106 149l43 106h-149v-43h-42
q-128 0 -128 128q0 51 297 85v63q0 43 -42 43q17 170 85 170z" />
    <glyph glyph-name="paragraph" unicode="&#xb6;" horiz-adv-x="1371" 
d="M909 1677q291 -121 382 -255q-23 -83 -127 -148l-21 -128v-63h106v-85q0 -64 -106 -64v-849q0 -110 -64 -128h-64q-35 0 -84 128l63 106v233q0 22 21 22q0 21 -21 21l21 106v106l-21 149q-196 -106 -255 -106v-319q0 -117 -21 -297q21 -37 21 -85q-29 -106 -148 -106
q-21 64 -43 64l43 212l-21 106q21 64 42 64l-21 106v42l21 128q-21 41 -21 63h-43q-223 0 -403 192q-85 119 -85 318q0 238 594 467h255zM803 1529q-85 -208 -85 -574v-85h21q276 75 276 213q0 21 -21 21l21 212v106q0 43 -212 107zM209 1125v-42q105 -213 233 -213
q0 -28 149 -42v467l21 212q-403 -119 -403 -382z" />
    <glyph glyph-name="quoteleft" unicode="&#x2018;" horiz-adv-x="395" 
d="M124 1261q-35 51 -64 170q0 147 170 297h43q42 0 42 -42v-43q-85 -88 -85 -212v-21l21 -106q-69 -43 -127 -43z" />
    <glyph glyph-name="quoteright" unicode="&#x2019;" horiz-adv-x="395" 
d="M251 1728q35 -51 64 -170q0 -147 -170 -297h-43q-42 0 -42 42v43q85 88 85 212v21l-21 106q69 43 127 43z" />
    <glyph glyph-name="quotedblleft" unicode="&#x201c;" horiz-adv-x="752" 
d="M124 1261q-35 51 -64 170q0 147 170 297h43q42 0 42 -42v-43q-85 -88 -85 -212v-21l21 -106q-69 -43 -127 -43zM481 1261q-35 51 -64 170q0 147 170 297h43q42 0 42 -42v-43q-85 -88 -85 -212v-21l21 -106q-69 -43 -127 -43z" />
    <glyph glyph-name="quotedblright" unicode="&#x201d;" horiz-adv-x="752" 
d="M251 1728q35 -51 64 -170q0 -147 -170 -297h-43q-42 0 -42 42v43q85 88 85 212v21l-21 106q69 43 127 43zM608 1728q35 -51 64 -170q0 -147 -170 -297h-43q-42 0 -42 42v43q85 88 85 212v21l-21 106q69 43 127 43z" />
    <glyph glyph-name="daggerdbl" unicode="&#x2021;" horiz-adv-x="1117" 
d="M846 1571h42q43 -7 43 -42v-22q-107 -293 -107 -318h22q111 21 127 21q41 -21 64 -21v-106q0 -32 -85 -64l-128 21h-42q-32 -154 -85 -233v-22h64q71 0 148 64h64q64 -21 64 -127l-22 -85h-148q-21 0 -21 21q-213 -33 -213 -85q-144 -425 -170 -425q0 -30 -63 -63
q-33 0 -85 85q0 53 63 254h-42l42 128q-92 -1 -212 -85h-64q0 33 -42 85v42q0 56 361 106q71 0 149 319q-62 -43 -404 -64q-37 21 -85 21v107q396 63 552 63l106 319v85z" />
    <glyph glyph-name="bullet" unicode="&#x2022;" horiz-adv-x="1117" 
d="M824 1422h64q64 -21 64 -127q-234 -169 -234 -276h64q150 42 170 42q44 -9 85 -106q-22 -85 -128 -85h-255l-42 -21q0 -127 149 -382v-43q0 -30 -64 -63h-127q-43 205 -43 233l-106 -170q-69 -42 -106 -42l-64 106v85q35 0 127 85q64 153 64 191v21q-111 0 -361 -21
l-21 43v63q0 31 64 64h297q-64 169 -64 361q37 21 85 21q85 -288 85 -340h43q102 250 254 361z" />
  </font>
</defs>
</svg>
